<?xml version="1.0" encoding="utf-8"?>
<!-- Generator: Adobe Illustrator 16.0.0, SVG Export Plug-In . SVG Version: 6.00 Build 0)  -->
<!DOCTYPE svg PUBLIC "-//W3C//DTD SVG 1.1//EN" "http://www.w3.org/Graphics/SVG/1.1/DTD/svg11.dtd">
<svg version="1.1" id="图层_1" xmlns="http://www.w3.org/2000/svg" xmlns:xlink="http://www.w3.org/1999/xlink" x="0px" y="0px"
	 width="32px" height="32px" viewBox="0 0 32 32" enable-background="new 0 0 32 32" xml:space="preserve">
<path fill="#819D2B" d="M4.636,27.283c-0.405-0.406-0.403-1.064,0.003-1.471c0.001,0,0.002-0.002,0.003-0.002
	c0.411-0.406,1.072-0.402,1.48,0.006c2.613,2.63,6.168,4.105,9.875,4.1c3.264,0,6.354-1.123,8.777-3.104l1.111-1.025
	c0.424-0.391,1.084-0.366,1.479,0.056c0.391,0.421,0.367,1.079-0.054,1.471c-0.001,0-0.001,0.001-0.003,0.002l-1.158,1.066
	c-2.862,2.346-6.451,3.625-10.152,3.619C11.733,32.007,7.643,30.309,4.636,27.283z M31.621,19.518
	c-0.125,0.564-0.684,0.922-1.248,0.798s-0.922-0.683-0.797-1.247c1.553-7.006-2.506-14.038-9.348-16.2
	c-0.549-0.175-0.852-0.761-0.676-1.31c0.174-0.548,0.761-0.851,1.309-0.676c7.875,2.484,12.544,10.574,10.756,18.634H31.621z
	 M8.605,4.333C3.672,7.414,1.19,13.25,2.394,18.94c0.114,0.566-0.252,1.118-0.818,1.233c-0.561,0.113-1.108-0.244-1.229-0.803
	C-1.145,12.308,2.298,5.125,8.738,1.862c1.538-0.88,4.744-1.993,7.116-1.843c0.267-0.053,0.562,0,0.8,0.186
	c0.201,0.16,0.313,0.377,0.348,0.633c0.008,0.085-0.014,0.163-0.033,0.251c-0.037,0.149-0.123,0.282-0.242,0.379
	c0,0-9.028,7.971-7.651,6.249C16-0.938,8.605,4.331,8.605,4.331V4.333z M8.45,28.874c-0.093-0.015-0.227,0.991-1.075,0.56
	c-1.507-0.77-4.319-3.056-5.466-5.273c-0.193-0.21-0.285-0.494-0.251-0.778c0.032-0.257,0.164-0.464,0.363-0.624
	c0.069-0.051,0.146-0.074,0.232-0.103C2.4,22.611,5.079,25.656,12,26.008s-3.552,2.866-3.552,2.866H8.45z M30.846,15.228
	c0.035,0.088,0.967-0.315,1.032,0.633c0.117,1.69-0.392,5.278-1.704,7.401c-0.08,0.275-0.275,0.502-0.537,0.619
	c-0.23,0.1-0.49,0.104-0.723,0.01c-0.08-0.032-0.139-0.088-0.209-0.147c-0.113-0.104-0.189-0.241-0.219-0.392
	c0,0-6.053-16.842-1.926-9.69s4.285,1.568,4.285,1.568V15.228z M9.788,25.87"/>
<path fill="#819D2B" d="M10.545,25.887"/>
<path fill="#819D2B" d="M9.582,25.866"/>
</svg>
